{
    "asset" : {
        "generator" : "Khronos glTF Blender I/O v1.3.48",
        "version" : "2.0"
    },
    "scene" : 0,
    "scenes" : [
        {
            "name" : "Scene",
            "nodes" : [
                0,
                1,
                2
            ]
        }
    ],
    "nodes" : [
        {
            "mesh" : 0,
            "name" : "Cube",
            "rotation" : [
                -0.25,
                0.0669872984290123,
                0.25,
                0.9330127239227295
            ],
            "scale" : [
                0.10304921865463257,
                0.10304921865463257,
                0.10304921865463257
            ],
            "translation" : [
                0.20273037254810333,
                4.618113994598389,
                0.1711432933807373
            ]
        },
        {
            "name" : "Camera",
            "rotation" : [
                0.555657684803009,
                0.007731853984296322,
                -0.010640092194080353,
                0.8313071727752686
            ],
            "translation" : [
                1.079207420349121,
                7.7290802001953125,
                11.801448822021484
            ]
        },
        {
            "name" : "Area",
            "rotation" : [
                0,
                0,
                -1,
                -1.6292068494294654e-07
            ],
            "scale" : [
                -24.403472900390625,
                -24.403472900390625,
                -24.403472900390625
            ],
            "translation" : [
                0,
                9.088403701782227,
                0
            ]
        }
    ],
    "materials" : [
        {
            "doubleSided" : true,
            "emissiveFactor" : [
                0,
                0,
                0
            ],
            "name" : "Material.002",
            "pbrMetallicRoughness" : {
                "baseColorFactor" : [
                    1,
                    1,
                    1,
                    1
                ],
                "metallicFactor" : 1,
                "roughnessFactor" : 0.15454545617103577
            }
        },
        {
            "doubleSided" : true,
            "emissiveFactor" : [
                0,
                0,
                0
            ],
            "name" : "Material.001",
            "pbrMetallicRoughness" : {
                "baseColorFactor" : [
                    0.022352958098053932,
                    0.020648479461669922,
                    0.02913280948996544,
                    1
                ],
                "metallicFactor" : 0,
                "roughnessFactor" : 0.5
            }
        }
    ],
    "meshes" : [
        {
            "name" : "Cube",
            "primitives" : [
                {
                    "attributes" : {
                        "POSITION" : 0,
                        "NORMAL" : 1,
                        "TEXCOORD_0" : 2
                    },
                    "indices" : 3,
                    "material" : 0
                },
                {
                    "attributes" : {
                        "POSITION" : 4,
                        "NORMAL" : 5,
                        "TEXCOORD_0" : 6
                    },
                    "indices" : 7,
                    "material" : 1
                }
            ]
        }
    ],
    "accessors" : [
        {
            "bufferView" : 0,
            "componentType" : 5126,
            "count" : 254,
            "max" : [
                10.330461502075195,
                2.390774726867676,
                1.0000008344650269
            ],
            "min" : [
                -10.330469131469727,
                -51.46373748779297,
                -1.0000005960464478
            ],
            "type" : "VEC3"
        },
        {
            "bufferView" : 1,
            "componentType" : 5126,
            "count" : 254,
            "type" : "VEC3"
        },
        {
            "bufferView" : 2,
            "componentType" : 5126,
            "count" : 254,
            "type" : "VEC2"
        },
        {
            "bufferView" : 3,
            "componentType" : 5123,
            "count" : 420,
            "type" : "SCALAR"
        },
        {
            "bufferView" : 4,
            "componentType" : 5126,
            "count" : 435,
            "max" : [
                9.920661926269531,
                17.27118682861328,
                9.7041015625
            ],
            "min" : [
                -9.92066764831543,
                2.357508659362793,
                -9.704099655151367
            ],
            "type" : "VEC3"
        },
        {
            "bufferView" : 5,
            "componentType" : 5126,
            "count" : 435,
            "type" : "VEC3"
        },
        {
            "bufferView" : 6,
            "componentType" : 5126,
            "count" : 435,
            "type" : "VEC2"
        },
        {
            "bufferView" : 7,
            "componentType" : 5123,
            "count" : 837,
            "type" : "SCALAR"
        }
    ],
    "bufferViews" : [
        {
            "buffer" : 0,
            "byteLength" : 3048,
            "byteOffset" : 0
        },
        {
            "buffer" : 0,
            "byteLength" : 3048,
            "byteOffset" : 3048
        },
        {
            "buffer" : 0,
            "byteLength" : 2032,
            "byteOffset" : 6096
        },
        {
            "buffer" : 0,
            "byteLength" : 840,
            "byteOffset" : 8128
        },
        {
            "buffer" : 0,
            "byteLength" : 5220,
            "byteOffset" : 8968
        },
        {
            "buffer" : 0,
            "byteLength" : 5220,
            "byteOffset" : 14188
        },
        {
            "buffer" : 0,
            "byteLength" : 3480,
            "byteOffset" : 19408
        },
        {
            "buffer" : 0,
            "byteLength" : 1674,
            "byteOffset" : 22888
        }
    ],
    "buffers" : [
        {
            "byteLength" : 24564,
            "uri" : "data:application/octet-stream;base64,"
        }
    ]
}
